<?xml version="1.0" encoding="utf-8"?>
<!-- Generator: Adobe Illustrator 25.4.1, SVG Export Plug-In . SVG Version: 6.00 Build 0)  -->
<svg version="1.1" id="Layer_1" xmlns="http://www.w3.org/2000/svg" xmlns:xlink="http://www.w3.org/1999/xlink" x="0px" y="0px"
	 viewBox="0 0 939.36 127.73" style="enable-background:new 0 0 939.36 127.73;" xml:space="preserve">
<style type="text/css">
	.st0{fill:#005EFA;}
</style>
<g>
	<g>
		<polygon class="st0" points="37.88,30.35 37.88,125.95 72.79,125.95 72.79,30.35 110.48,30.35 110.48,2.78 0,2.78 0,30.35 		"/>
		<path class="st0" d="M207.86,87.27c7.54-3.77,13.49-8.73,17.85-15.47c4.16-6.74,6.35-14.48,6.35-23.41
			c0-9.12-2.38-17.25-6.75-24.2c-4.56-6.94-10.91-12.1-19.04-15.87c-8.33-3.77-18.05-5.56-28.96-5.56h-56.33v27.37h54.15
			c6.94,0,12.5,1.59,16.27,4.76c3.57,3.17,5.55,7.73,5.55,13.29c0,5.75-1.98,10.11-5.55,13.29c-3.77,3.17-9.12,4.56-16.27,4.56
			h-54.15v59.7h34.91V93.02h19.04l22.41,32.73h37.29L207.86,87.27z"/>
		<polygon class="st0" points="332.42,2.77 298.11,2.77 243.57,125.95 279.27,125.95 288.99,101.95 299.1,76.16 314.97,36.69 
			330.84,76.16 340.95,101.95 350.67,125.95 386.97,125.95 		"/>
		<path class="st0" d="M414.34,119.6c10.12,5.55,21.82,8.13,34.91,8.13c11.31,0,21.22-1.98,30.54-5.95
			c8.93-3.97,16.46-9.72,22.61-17.26l-22.21-20.03c-8.13,9.72-17.85,14.48-28.96,14.48c-6.74,0-12.69-1.39-18.05-4.37
			c-5.35-2.77-9.32-6.94-12.1-12.29c-2.78-5.36-4.16-11.51-4.16-18.45c0-6.94,1.39-13.09,4.16-18.25c2.78-5.36,6.94-9.52,12.1-12.49
			c5.36-2.78,11.31-4.36,18.05-4.36c11.31,0,21.03,4.96,28.96,14.48l22.21-20.03c-5.95-7.34-13.49-13.29-22.61-17.25
			C470.67,1.98,460.56,0,449.25,0c-13.09,0-24.59,2.78-34.91,8.33c-10.11,5.55-18.25,13.09-24.2,22.61
			c-5.95,9.92-8.73,20.83-8.73,33.12c0,12.3,2.78,23.4,8.73,33.12C396.09,106.71,404.23,114.25,414.34,119.6"/>
		<polygon class="st0" points="545.64,30.35 545.64,125.95 580.55,125.95 580.55,30.35 618.24,30.35 618.24,2.78 507.96,2.78 
			507.96,30.35 		"/>
		<rect x="628.75" y="2.77" class="st0" width="34.91" height="123.17"/>
		<polygon class="st0" points="760.05,2.77 725.74,2.77 671.4,125.95 706.89,125.95 716.62,101.95 726.73,76.16 742.6,36.69 
			758.47,76.16 768.58,101.95 778.3,125.95 814.6,125.95 		"/>
		<path class="st0" d="M822.33,125.95h34.11l0.2-36.89l-34.11-43.44L822.33,125.95z M905.24,2.77l-0.2,35.31l34.12,41.26l0.2-76.56
			H905.24z M905.24,68.43L850.9,2.77h-28.76v16.46l34.11,41.26l54.34,65.65h28.76v-14.28L905.24,68.43z"/>
	</g>
</g>
</svg>
